<?xml version="1.0" standalone="no"?>
<!DOCTYPE svg PUBLIC "-//W3C//DTD SVG 20010904//EN"
 "http://www.w3.org/TR/2001/REC-SVG-20010904/DTD/svg10.dtd">
<svg version="1.0" xmlns="http://www.w3.org/2000/svg"
 width="73.000000pt" height="73.000000pt" viewBox="0 0 73.000000 73.000000"
 preserveAspectRatio="xMidYMid meet">
<metadata>
Created by potrace 1.15, written by Peter Selinger 2001-2017
</metadata>
<g transform="translate(0.000000,73.000000) scale(0.100000,-0.100000)"
fill="#000000" stroke="none">
<path d="M226 691 c-4 -6 -12 -9 -17 -6 -5 4 -9 1 -9 -6 0 -7 -3 -10 -6 -7 -9
10 -65 -52 -58 -64 4 -6 3 -8 -3 -5 -12 8 -37 -46 -38 -82 0 -13 -6 -25 -13
-27 -7 -1 -8 0 -2 3 5 2 10 9 10 15 0 6 -9 3 -20 -7 -11 -10 -18 -20 -16 -22
2 -3 -4 -13 -15 -24 -10 -10 -16 -25 -13 -34 4 -8 1 -15 -5 -15 -18 0 -12 -71
9 -116 11 -23 30 -50 43 -60 21 -19 21 -19 7 0 -13 17 -13 19 0 14 8 -3 15
-13 15 -24 1 -39 17 -84 27 -78 7 5 8 2 3 -6 -5 -8 1 -20 16 -32 13 -11 17
-16 9 -12 -13 7 -13 6 -1 -9 8 -10 16 -15 19 -12 3 2 11 -3 18 -12 10 -15 34
-18 169 -20 169 -2 187 2 233 51 12 13 29 40 37 60 14 33 14 35 -2 29 -12 -5
-11 -1 5 15 12 12 22 27 22 33 0 5 4 8 9 4 12 -7 49 45 55 78 2 15 7 31 11 37
10 16 -23 117 -40 124 -8 3 -15 12 -15 21 0 8 -4 15 -9 15 -4 0 -16 21 -26 48
-36 95 -93 142 -172 142 -54 0 -88 -10 -71 -21 10 -7 9 -9 -4 -9 -9 0 -18 5
-20 11 -5 16 -133 25 -142 10z m203 -91 c198 -95 275 -194 226 -289 -25 -49
-114 -120 -213 -169 -84 -41 -103 -47 -160 -47 -61 0 -66 2 -92 33 -42 51 -55
111 -54 252 0 109 3 132 24 179 46 104 116 114 269 41z"/>
<path d="M261 577 c-64 -32 -93 -146 -71 -274 23 -137 87 -166 226 -99 110 53
174 118 174 179 0 63 -138 172 -249 196 -62 13 -51 13 -80 -2z"/>
</g>
</svg>
